<?xml version="1.0" encoding="UTF-8" standalone="no"?>
<svg
   xmlns:dc="http://purl.org/dc/elements/1.1/"
   xmlns:cc="http://creativecommons.org/ns#"
   xmlns:rdf="http://www.w3.org/1999/02/22-rdf-syntax-ns#"
   xmlns:svg="http://www.w3.org/2000/svg"
   xmlns="http://www.w3.org/2000/svg"
   xmlns:sodipodi="http://sodipodi.sourceforge.net/DTD/sodipodi-0.dtd"
   xmlns:inkscape="http://www.inkscape.org/namespaces/inkscape"
   version="1.1"
   id="svg2"
   xml:space="preserve"
   width="277.74533"
   height="85.859467"
   viewBox="0 0 277.74533 85.859467"
   sodipodi:docname="logo horizontal fondo blanco.ai"><metadata
     id="metadata8"><rdf:RDF><cc:Work
         rdf:about=""><dc:format>image/svg+xml</dc:format><dc:type
           rdf:resource="http://purl.org/dc/dcmitype/StillImage" /></cc:Work></rdf:RDF></metadata><defs
     id="defs6"><clipPath
       clipPathUnits="userSpaceOnUse"
       id="clipPath18"><path
         d="M 0,64.395 H 208.309 V 0 H 0 Z"
         id="path16" /></clipPath></defs><sodipodi:namedview
     pagecolor="#ffffff"
     bordercolor="#666666"
     borderopacity="1"
     objecttolerance="10"
     gridtolerance="10"
     guidetolerance="10"
     inkscape:pageopacity="0"
     inkscape:pageshadow="2"
     inkscape:window-width="640"
     inkscape:window-height="480"
     id="namedview4" /><g
     id="g10"
     inkscape:groupmode="layer"
     inkscape:label="logo horizontal fondo blanco"
     transform="matrix(1.3333333,0,0,-1.3333333,0,85.859467)"><g
       id="g12"><g
         id="g14"
         clip-path="url(#clipPath18)"><g
           id="g20"
           transform="translate(46.2814,45.6277)"><path
             d="m 0,0 h -16.625 c -2.958,0 -5.355,-2.35 -5.355,-5.247 0,-2.898 2.397,-5.247 5.355,-5.247 h 9.477 c -0.021,-0.033 -6.374,-10.775 -9.457,-15.965 -3.042,5.16 -6.195,10.465 -9.403,15.812 h 0.011 c -0.851,1.403 -1.382,3.008 -1.492,4.719 -0.393,6.198 4.622,11.344 10.864,11.344 1.623,0 3.159,-0.356 4.542,-0.981 0.821,-0.42 1.762,-0.648 2.76,-0.614 3.037,0.104 5.475,2.686 5.353,5.66 -0.084,2.049 -1.322,3.809 -3.095,4.665 -3.17,1.503 -6.763,2.283 -10.559,2.118 -11.298,-0.492 -20.476,-9.494 -20.96,-20.563 -0.222,-5.014 1.313,-9.668 4.047,-13.425 5.555,-7.63 15.848,-26.057 15.848,-26.057 1.139,-1.117 2.99,-1.117 4.129,0 0,0 11.37,19.802 15.948,26.196 2.501,3.493 3.968,7.746 3.968,12.338 C 5.356,-2.35 2.958,0 0,0"
             style="fill:#0076a7;fill-opacity:1;fill-rule:nonzero;stroke:none"
             id="path22" /></g><g
           id="g24"
           transform="translate(73.798,30.8698)"><path
             d="M 0,0 C 0.789,0 1.536,0.165 2.244,0.493 2.95,0.821 3.558,1.281 4.067,1.872 4.575,2.465 4.986,3.154 5.298,3.942 5.611,4.731 5.769,5.585 5.769,6.506 5.769,7.393 5.611,8.23 5.298,9.02 4.986,9.808 4.575,10.498 4.067,11.09 3.558,11.681 2.95,12.149 2.244,12.495 1.536,12.839 0.789,13.012 0,13.012 c -0.789,0 -1.536,-0.173 -2.241,-0.517 C -2.947,12.149 -3.556,11.681 -4.064,11.09 -4.574,10.498 -4.977,9.808 -5.271,9.02 -5.567,8.23 -5.716,7.393 -5.716,6.506 c 0,-0.921 0.149,-1.775 0.445,-2.564 0.294,-0.788 0.697,-1.477 1.207,-2.07 C -3.556,1.281 -2.947,0.821 -2.241,0.493 -1.536,0.165 -0.789,0 0,0 m 10.696,-5.471 c 0,-1.38 -0.23,-2.726 -0.69,-4.042 -0.461,-1.313 -1.116,-2.513 -1.972,-3.597 -1.018,-1.084 -2.251,-1.996 -3.696,-2.736 -1.445,-0.738 -2.907,-1.108 -4.386,-1.108 h -0.64 c -1.645,0.131 -3.181,0.633 -4.61,1.504 -1.43,0.871 -2.62,2.028 -3.572,3.473 h 0.049 c -0.263,0.526 -0.394,0.969 -0.394,1.331 0,0.427 0.099,0.831 0.295,1.208 0.198,0.378 0.477,0.682 0.838,0.912 0.361,0.263 0.82,0.394 1.38,0.394 0.427,0 0.813,-0.099 1.158,-0.296 0.346,-0.197 0.648,-0.46 0.912,-0.788 0.493,-0.789 1.117,-1.43 1.873,-1.923 0.756,-0.492 1.544,-0.771 2.365,-0.838 h 0.346 c 1.675,0 3.106,0.674 4.288,2.021 1.017,1.281 1.529,2.777 1.529,4.485 v 2.218 C 4.749,-3.778 3.764,-4.197 2.812,-4.51 1.857,-4.822 0.921,-4.978 0,-4.978 c -1.478,0 -2.866,0.303 -4.164,0.912 -1.299,0.607 -2.431,1.428 -3.399,2.464 -0.972,1.035 -1.735,2.251 -2.292,3.648 -0.561,1.395 -0.838,2.883 -0.838,4.46 0,1.577 0.277,3.063 0.838,4.46 0.557,1.396 1.32,2.613 2.292,3.647 0.968,1.036 2.1,1.856 3.399,2.465 1.298,0.608 2.686,0.911 4.164,0.911 1.939,0 3.878,-0.608 5.817,-1.823 0.262,0.526 0.617,0.961 1.058,1.306 0.445,0.345 0.896,0.517 1.356,0.517 0.659,0 1.232,-0.246 1.725,-0.739 0.493,-0.493 0.74,-1.068 0.74,-1.725 z"
             style="fill:#2a1d1b;fill-opacity:1;fill-rule:nonzero;stroke:none"
             id="path26" /></g><g
           id="g28"
           transform="translate(104.2569,48.8586)"><path
             d="m 0,0 c 0.658,0 1.233,-0.246 1.726,-0.739 0.493,-0.493 0.739,-1.084 0.739,-1.775 v -11.68 c 0,-0.165 -0.049,-0.665 -0.148,-1.503 -0.098,-0.837 -0.412,-1.749 -0.936,-2.736 -0.757,-1.479 -1.816,-2.604 -3.18,-3.376 -1.364,-0.773 -2.95,-1.158 -4.755,-1.158 -1.842,0 -3.443,0.385 -4.805,1.158 -1.365,0.772 -2.425,1.897 -3.181,3.376 -0.558,0.987 -0.886,1.899 -0.983,2.736 -0.101,0.838 -0.149,1.338 -0.149,1.503 v 11.68 c 0,0.691 0.246,1.282 0.739,1.775 0.494,0.493 1.068,0.739 1.725,0.739 0.69,0 1.281,-0.246 1.774,-0.739 0.495,-0.493 0.74,-1.084 0.74,-1.775 v -11.68 c 0,-0.066 0.032,-0.32 0.097,-0.763 0.068,-0.445 0.231,-0.912 0.493,-1.405 0.263,-0.363 0.633,-0.724 1.11,-1.084 0.476,-0.363 1.289,-0.543 2.44,-0.543 1.117,0 1.922,0.18 2.415,0.543 0.493,0.36 0.854,0.721 1.084,1.084 0.263,0.46 0.427,0.919 0.493,1.379 0.065,0.461 0.098,0.723 0.098,0.789 v 11.68 c 0,0.691 0.246,1.282 0.739,1.775 C -1.231,-0.246 -0.657,0 0,0"
             style="fill:#2a1d1b;fill-opacity:1;fill-rule:nonzero;stroke:none"
             id="path30" /></g><g
           id="g32"
           transform="translate(125.6485,35.2077)"><path
             d="m 0,0 c -0.46,0.032 -0.979,0.065 -1.553,0.098 -0.575,0.033 -1.143,0.049 -1.701,0.049 -0.724,0 -1.472,-0.032 -2.242,-0.099 -0.774,-0.066 -1.48,-0.181 -2.12,-0.344 -0.639,-0.165 -1.167,-0.387 -1.577,-0.666 -0.411,-0.278 -0.617,-0.633 -0.617,-1.059 0,-0.823 0.321,-1.405 0.961,-1.75 0.642,-0.345 1.34,-0.517 2.097,-0.517 0.523,0 0.967,0.023 1.33,0.073 0.36,0.05 0.608,0.09 0.738,0.124 0.066,0.031 0.133,0.048 0.198,0.048 1.05,0.23 1.905,0.617 2.563,1.16 0.656,0.541 1.134,1.059 1.43,1.551 z m 5.174,-6.852 c 0,-0.658 -0.245,-1.231 -0.738,-1.724 -0.494,-0.493 -1.069,-0.739 -1.725,-0.739 -0.493,0 -0.962,0.171 -1.405,0.517 -0.444,0.345 -0.798,0.779 -1.06,1.306 -1.053,-0.559 -2.169,-0.995 -3.352,-1.306 -1.183,-0.312 -2.398,-0.469 -3.646,-0.469 -2.07,0 -3.771,0.493 -5.102,1.479 -1.331,0.986 -2.227,2.398 -2.686,4.238 -0.132,0.493 -0.197,1.019 -0.197,1.577 0,1.412 0.41,2.629 1.232,3.648 0.526,0.723 1.166,1.305 1.922,1.751 0.756,0.443 1.568,0.788 2.438,1.034 0.873,0.246 1.783,0.419 2.737,0.517 0.953,0.099 1.905,0.148 2.859,0.148 0.525,0 1.14,-0.018 1.848,-0.049 C -0.995,5.042 -0.396,5.01 0.098,4.977 -0.034,5.635 -0.215,6.25 -0.443,6.825 -0.674,7.399 -0.954,7.786 -1.282,7.983 -2.137,8.443 -3.074,8.674 -4.091,8.674 -5.145,8.674 -6.154,8.477 -7.123,8.083 -8.092,7.687 -8.856,7.261 -9.415,6.802 -9.646,6.604 -9.899,6.463 -10.178,6.382 -10.458,6.3 -10.729,6.259 -10.992,6.259 c -0.723,0 -1.364,0.278 -1.921,0.838 -0.362,0.459 -0.543,1.002 -0.543,1.627 0,0.789 0.296,1.412 0.887,1.873 0.953,0.853 2.029,1.518 3.228,1.996 1.198,0.474 2.472,0.796 3.82,0.96 0.264,0.033 0.494,0.05 0.69,0.05 h 0.641 c 0.888,0 1.807,-0.124 2.759,-0.371 0.952,-0.246 1.807,-0.549 2.565,-0.911 C 2.053,11.762 2.775,11.063 3.302,10.227 3.826,9.389 4.229,8.566 4.51,7.762 4.788,6.956 4.96,6.241 5.026,5.618 5.092,4.994 5.125,4.616 5.125,4.484 V -3.55 Z"
             style="fill:#2a1d1b;fill-opacity:1;fill-rule:nonzero;stroke:none"
             id="path34" /></g><g
           id="g36"
           transform="translate(152.4103,48.8586)"><path
             d="m 0,0 c 0.656,0 1.23,-0.246 1.725,-0.739 0.493,-0.493 0.739,-1.084 0.739,-1.775 v -17.989 c 0,-0.525 -0.15,-1.003 -0.443,-1.43 -0.296,-0.427 -0.691,-0.722 -1.184,-0.886 -0.263,-0.099 -0.56,-0.148 -0.887,-0.148 -0.297,0 -0.617,0.09 -0.963,0.272 -0.342,0.178 -0.633,0.384 -0.861,0.615 L -12.47,-9.363 v -11.14 c 0,-0.658 -0.247,-1.231 -0.74,-1.725 -0.493,-0.493 -1.084,-0.739 -1.774,-0.739 -0.658,0 -1.233,0.246 -1.725,0.739 -0.492,0.494 -0.739,1.067 -0.739,1.725 v 17.989 c 0,0.526 0.138,1.002 0.419,1.43 0.278,0.426 0.665,0.738 1.158,0.937 0.131,0.065 0.278,0.106 0.443,0.123 0.164,0.015 0.327,0.024 0.492,0.024 0.33,0 0.658,-0.099 0.988,-0.296 0.328,-0.197 0.623,-0.393 0.885,-0.591 l 10.597,-12.667 v 11.04 c 0,0.691 0.248,1.282 0.739,1.775 C -1.233,-0.246 -0.658,0 0,0"
             style="fill:#2a1d1b;fill-opacity:1;fill-rule:nonzero;stroke:none"
             id="path38" /></g><g
           id="g40"
           transform="translate(176.9542,30.0329)"><path
             d="m 0,0 c 0.328,-0.493 0.492,-1.003 0.492,-1.529 0,-0.788 -0.329,-1.429 -0.985,-1.922 -0.461,-0.362 -0.954,-0.542 -1.481,-0.542 -0.359,0 -0.714,0.09 -1.057,0.271 -0.345,0.18 -0.651,0.435 -0.912,0.764 l -4.682,6.26 -4.831,-6.456 c -0.263,-0.265 -0.575,-0.493 -0.938,-0.691 -0.361,-0.198 -0.721,-0.296 -1.084,-0.296 -0.196,0 -0.434,0.04 -0.713,0.122 -0.28,0.083 -0.536,0.206 -0.764,0.372 -0.264,0.261 -0.493,0.558 -0.691,0.886 -0.196,0.328 -0.294,0.691 -0.294,1.084 0,0.231 0.047,0.485 0.148,0.765 0.098,0.278 0.229,0.516 0.394,0.715 l 5.619,7.59 -5.619,7.638 c -0.363,0.363 -0.542,0.838 -0.542,1.429 0,0.361 0.098,0.724 0.294,1.085 0.198,0.362 0.427,0.657 0.691,0.888 0.228,0.163 0.484,0.295 0.764,0.393 0.279,0.1 0.517,0.148 0.713,0.148 0.856,0 1.529,-0.328 2.022,-0.985 l 4.831,-6.456 c 0.656,0.919 1.43,1.953 2.315,3.105 0.887,1.149 1.676,2.2 2.367,3.154 0.228,0.263 0.525,0.493 0.885,0.688 0.364,0.199 0.725,0.297 1.084,0.297 0.56,0 1.053,-0.164 1.481,-0.492 C 0.163,17.792 0.492,17.151 0.492,16.362 0.492,15.869 0.328,15.344 0,14.785 L -5.521,7.393 Z"
             style="fill:#2a1d1b;fill-opacity:1;fill-rule:nonzero;stroke:none"
             id="path42" /></g><g
           id="g44"
           transform="translate(195.4366,40.3825)"><path
             d="M 0,0 C -0.493,1.116 -1.069,1.955 -1.727,2.513 -2.383,3.071 -3.303,3.352 -4.484,3.352 -5.636,3.352 -6.548,3.056 -7.221,2.464 -7.896,1.872 -8.527,1.051 -9.118,0 Z m -3.895,-14.49 c -0.426,0 -0.708,0.015 -0.836,0.049 -1.512,0.066 -2.909,0.41 -4.19,1.035 -1.281,0.624 -2.35,1.479 -3.204,2.563 -1.645,2.102 -2.463,4.714 -2.463,7.836 0,1.577 0.261,3.064 0.788,4.46 0.525,1.397 1.238,2.613 2.145,3.648 0.902,1.036 1.953,1.855 3.154,2.464 1.197,0.608 2.486,0.912 3.868,0.912 2.792,0 5.175,-1.084 7.146,-3.252 0.92,-1.02 1.619,-2.186 2.094,-3.5 0.476,-1.315 0.715,-2.711 0.715,-4.189 0,-0.69 -0.246,-1.282 -0.739,-1.774 -0.493,-0.493 -1.068,-0.74 -1.726,-0.74 h -12.37 c 0.163,-0.527 0.386,-1.052 0.665,-1.577 0.28,-0.527 0.617,-1.003 1.012,-1.429 0.394,-0.428 0.861,-0.782 1.402,-1.06 0.543,-0.28 1.176,-0.436 1.9,-0.469 h 0.295 c 0.426,0 0.977,0.041 1.651,0.123 0.674,0.081 1.371,0.37 2.095,0.863 0.525,0.263 1.001,0.394 1.429,0.394 0.427,0 0.845,-0.115 1.256,-0.345 0.412,-0.229 0.747,-0.575 1.011,-1.035 0.164,-0.131 0.246,-0.476 0.246,-1.034 0,-0.855 -0.393,-1.577 -1.181,-2.169 -1.152,-0.757 -2.292,-1.241 -3.426,-1.455 -1.134,-0.213 -2.046,-0.319 -2.737,-0.319"
             style="fill:#2a1d1b;fill-opacity:1;fill-rule:nonzero;stroke:none"
             id="path46" /></g><g
           id="g48"
           transform="translate(115.0099,15.3401)"><path
             d="M 0,0 -0.602,1.534 -1.208,0 Z m 1.036,-1.035 c 0.011,-0.031 0.017,-0.067 0.017,-0.11 0,-0.072 -0.025,-0.137 -0.074,-0.194 -0.05,-0.057 -0.119,-0.085 -0.207,-0.085 -0.053,0 -0.105,0.018 -0.154,0.057 -0.05,0.037 -0.088,0.08 -0.115,0.125 L 0.234,-0.566 H -1.442 L -1.717,-1.242 C -1.74,-1.287 -1.776,-1.33 -1.826,-1.367 -1.875,-1.406 -1.927,-1.424 -1.98,-1.424 c -0.084,0 -0.152,0.029 -0.204,0.088 -0.051,0.059 -0.077,0.124 -0.077,0.191 0,0.043 0.006,0.079 0.018,0.11 0.218,0.553 0.445,1.125 0.683,1.716 0.239,0.591 0.468,1.164 0.69,1.716 0.027,0.051 0.063,0.093 0.111,0.13 0.048,0.036 0.101,0.054 0.157,0.054 0.054,0 0.105,-0.018 0.153,-0.054 0.047,-0.037 0.085,-0.079 0.111,-0.13 z"
             style="fill:#2a1d1b;fill-opacity:1;fill-rule:nonzero;stroke:none"
             id="path50" /></g><g
           id="g52"
           transform="translate(119.548,17.9211)"><path
             d="m 0,0 c 0.08,0 0.148,-0.027 0.206,-0.083 0.057,-0.055 0.085,-0.121 0.085,-0.198 0,-0.08 -0.028,-0.148 -0.085,-0.205 C 0.148,-0.543 0.08,-0.572 0,-0.572 h -0.744 v -3.154 c 0,-0.076 -0.027,-0.142 -0.083,-0.196 -0.056,-0.056 -0.123,-0.083 -0.203,-0.083 -0.076,0 -0.143,0.027 -0.198,0.083 -0.055,0.054 -0.083,0.12 -0.083,0.196 v 3.154 h -0.75 c -0.076,0 -0.143,0.029 -0.2,0.086 -0.056,0.057 -0.086,0.125 -0.086,0.205 0,0.077 0.03,0.143 0.086,0.198 0.057,0.056 0.124,0.083 0.2,0.083 z"
             style="fill:#2a1d1b;fill-opacity:1;fill-rule:nonzero;stroke:none"
             id="path54" /></g><g
           id="g56"
           transform="translate(122.0655,13.9157)"><path
             d="M 0,0 C -0.08,0 -0.149,0.027 -0.206,0.083 -0.264,0.138 -0.292,0.204 -0.292,0.28 v 3.445 c 0,0.077 0.028,0.143 0.086,0.197 C -0.149,3.978 -0.08,4.005 0,4.005 0.076,4.005 0.142,3.978 0.197,3.922 0.252,3.868 0.28,3.802 0.28,3.725 V 0.572 h 1.259 c 0.08,0 0.148,-0.029 0.206,-0.086 C 1.803,0.429 1.831,0.361 1.831,0.28 1.831,0.204 1.803,0.138 1.745,0.083 1.687,0.027 1.619,0 1.539,0 Z"
             style="fill:#2a1d1b;fill-opacity:1;fill-rule:nonzero;stroke:none"
             id="path58" /></g><g
           id="g60"
           transform="translate(128.0968,15.3401)"><path
             d="M 0,0 -0.602,1.534 -1.208,0 Z m 1.035,-1.035 c 0.012,-0.031 0.018,-0.067 0.018,-0.11 0,-0.072 -0.026,-0.137 -0.074,-0.194 -0.05,-0.057 -0.12,-0.085 -0.207,-0.085 -0.053,0 -0.105,0.018 -0.154,0.057 -0.05,0.037 -0.088,0.08 -0.115,0.125 L 0.234,-0.566 H -1.442 L -1.717,-1.242 C -1.74,-1.287 -1.776,-1.33 -1.826,-1.367 -1.875,-1.406 -1.927,-1.424 -1.98,-1.424 c -0.084,0 -0.152,0.029 -0.204,0.088 -0.051,0.059 -0.077,0.124 -0.077,0.191 0,0.043 0.006,0.079 0.017,0.11 0.218,0.553 0.446,1.125 0.684,1.716 0.239,0.591 0.468,1.164 0.69,1.716 0.026,0.051 0.063,0.093 0.111,0.13 0.048,0.036 0.101,0.054 0.157,0.054 0.054,0 0.105,-0.018 0.153,-0.054 0.047,-0.037 0.084,-0.079 0.111,-0.13 z"
             style="fill:#2a1d1b;fill-opacity:1;fill-rule:nonzero;stroke:none"
             id="path62" /></g><g
           id="g64"
           transform="translate(133.756,13.9157)"><path
             d="M 0,0 C -0.096,0 -0.174,0.042 -0.234,0.125 L -2.117,2.821 V 0.28 C -2.117,0.204 -2.146,0.138 -2.203,0.083 -2.261,0.027 -2.329,0 -2.409,0 -2.485,0 -2.552,0.027 -2.606,0.083 -2.662,0.138 -2.689,0.204 -2.689,0.28 v 3.445 c 0,0.073 0.026,0.138 0.08,0.195 0.053,0.057 0.122,0.085 0.206,0.085 0.094,0 0.174,-0.042 0.234,-0.126 l 1.883,-2.694 v 2.54 c 0,0.077 0.028,0.143 0.086,0.197 0.056,0.056 0.124,0.083 0.2,0.083 0.076,0 0.144,-0.027 0.2,-0.083 C 0.258,3.868 0.286,3.802 0.286,3.725 V 0.28 C 0.286,0.204 0.258,0.138 0.2,0.083 0.144,0.027 0.076,0 0,0"
             style="fill:#2a1d1b;fill-opacity:1;fill-rule:nonzero;stroke:none"
             id="path66" /></g><g
           id="g68"
           transform="translate(138.3107,17.9211)"><path
             d="m 0,0 c 0.08,0 0.149,-0.027 0.206,-0.083 0.058,-0.055 0.086,-0.121 0.086,-0.198 0,-0.08 -0.028,-0.148 -0.086,-0.205 C 0.149,-0.543 0.08,-0.572 0,-0.572 h -0.743 v -3.154 c 0,-0.076 -0.028,-0.142 -0.083,-0.196 -0.056,-0.056 -0.123,-0.083 -0.203,-0.083 -0.077,0 -0.143,0.027 -0.198,0.083 -0.055,0.054 -0.084,0.12 -0.084,0.196 v 3.154 H -2.06 c -0.076,0 -0.143,0.029 -0.2,0.086 -0.057,0.057 -0.086,0.125 -0.086,0.205 0,0.077 0.029,0.143 0.086,0.198 C -2.203,-0.027 -2.136,0 -2.06,0 Z"
             style="fill:#2a1d1b;fill-opacity:1;fill-rule:nonzero;stroke:none"
             id="path70" /></g><g
           id="g72"
           transform="translate(140.8282,13.9157)"><path
             d="M 0,0 C -0.076,0 -0.142,0.027 -0.197,0.083 -0.252,0.138 -0.28,0.204 -0.28,0.28 v 3.445 c 0,0.077 0.028,0.143 0.083,0.197 C -0.142,3.978 -0.076,4.005 0,4.005 0.077,4.005 0.144,3.978 0.201,3.922 0.258,3.868 0.287,3.802 0.287,3.725 V 0.28 C 0.287,0.204 0.258,0.138 0.201,0.083 0.144,0.027 0.077,0 0,0"
             style="fill:#2a1d1b;fill-opacity:1;fill-rule:nonzero;stroke:none"
             id="path74" /></g><g
           id="g76"
           transform="translate(145.7726,14.6594)"><path
             d="M 0,0 C 0.046,0.022 0.092,0.035 0.138,0.035 0.187,0.035 0.235,0.022 0.28,-0.002 0.326,-0.027 0.362,-0.067 0.39,-0.12 0.428,-0.185 0.435,-0.254 0.409,-0.329 0.385,-0.403 0.34,-0.461 0.275,-0.504 c -0.145,-0.072 -0.3,-0.13 -0.466,-0.174 -0.166,-0.044 -0.33,-0.066 -0.49,-0.066 -0.274,0 -0.534,0.053 -0.778,0.158 -0.244,0.104 -0.457,0.248 -0.638,0.429 -0.181,0.181 -0.324,0.394 -0.429,0.638 -0.105,0.244 -0.158,0.503 -0.158,0.778 0,0.275 0.053,0.533 0.158,0.775 0.105,0.242 0.248,0.455 0.429,0.639 0.181,0.182 0.394,0.327 0.638,0.431 0.244,0.105 0.504,0.158 0.778,0.158 0.16,0 0.324,-0.023 0.49,-0.069 C -0.025,3.147 0.13,3.09 0.275,3.022 0.34,2.979 0.385,2.921 0.409,2.847 0.435,2.772 0.428,2.703 0.39,2.638 0.362,2.585 0.326,2.546 0.28,2.521 0.235,2.496 0.187,2.484 0.138,2.484 0.118,2.484 0.096,2.488 0.069,2.495 0.042,2.502 0.02,2.51 0,2.518 -0.099,2.572 -0.208,2.613 -0.326,2.644 -0.444,2.674 -0.562,2.689 -0.681,2.689 -0.875,2.689 -1.06,2.652 -1.232,2.578 -1.406,2.503 -1.558,2.401 -1.687,2.272 -1.817,2.143 -1.921,1.99 -1.997,1.817 -2.073,1.644 -2.111,1.458 -2.111,1.259 c 0,-0.198 0.038,-0.384 0.114,-0.558 0.076,-0.174 0.18,-0.326 0.31,-0.455 0.129,-0.129 0.281,-0.232 0.455,-0.306 0.172,-0.074 0.357,-0.112 0.551,-0.112 0.122,0 0.242,0.013 0.358,0.04 C -0.207,-0.105 -0.099,-0.061 0,0"
             style="fill:#2a1d1b;fill-opacity:1;fill-rule:nonzero;stroke:none"
             id="path78" /></g><g
           id="g80"
           transform="translate(154.4591,13.9157)"><path
             d="M 0,0 C -0.076,0 -0.142,0.027 -0.197,0.083 -0.253,0.138 -0.28,0.204 -0.28,0.28 V 2.867 L -1.315,1.487 C -1.374,1.411 -1.45,1.374 -1.545,1.374 c -0.096,0 -0.172,0.037 -0.228,0.113 l -1.031,1.38 V 0.28 C -2.804,0.204 -2.833,0.138 -2.89,0.083 -2.947,0.027 -3.014,0 -3.09,0 -3.166,0 -3.233,0.027 -3.29,0.083 -3.348,0.138 -3.376,0.204 -3.376,0.28 v 3.445 c 0,0.077 0.027,0.143 0.083,0.197 0.056,0.056 0.124,0.083 0.209,0.083 0.091,0 0.166,-0.038 0.223,-0.114 l 1.316,-1.757 1.321,1.757 C -0.17,3.967 -0.095,4.005 0,4.005 0.084,4.005 0.153,3.978 0.206,3.922 0.26,3.868 0.286,3.802 0.286,3.725 V 0.28 C 0.286,0.204 0.258,0.138 0.203,0.083 0.148,0.027 0.08,0 0,0"
             style="fill:#2a1d1b;fill-opacity:1;fill-rule:nonzero;stroke:none"
             id="path82" /></g><g
           id="g84"
           transform="translate(158.9171,15.3401)"><path
             d="M 0,0 -0.602,1.534 -1.208,0 Z m 1.036,-1.035 c 0.011,-0.031 0.017,-0.067 0.017,-0.11 0,-0.072 -0.025,-0.137 -0.075,-0.194 -0.049,-0.057 -0.118,-0.085 -0.206,-0.085 -0.053,0 -0.105,0.018 -0.154,0.057 -0.05,0.037 -0.088,0.08 -0.115,0.125 l -0.269,0.676 h -1.676 l -0.275,-0.676 c -0.022,-0.045 -0.058,-0.088 -0.109,-0.125 -0.049,-0.039 -0.101,-0.057 -0.154,-0.057 -0.084,0 -0.152,0.029 -0.204,0.088 -0.051,0.059 -0.077,0.124 -0.077,0.191 0,0.043 0.006,0.079 0.018,0.11 0.217,0.553 0.445,1.125 0.683,1.716 0.239,0.591 0.468,1.164 0.69,1.716 0.026,0.051 0.064,0.093 0.111,0.13 0.049,0.036 0.101,0.054 0.157,0.054 0.054,0 0.105,-0.018 0.152,-0.054 0.048,-0.037 0.085,-0.079 0.111,-0.13 z"
             style="fill:#2a1d1b;fill-opacity:1;fill-rule:nonzero;stroke:none"
             id="path86" /></g><g
           id="g88"
           transform="translate(162.4591,15.8611)"><path
             d="M 0,0 H 0.652 C 0.953,0 1.169,0.112 1.299,0.337 1.321,0.384 1.34,0.43 1.354,0.478 1.366,0.526 1.377,0.569 1.385,0.606 1.393,0.645 1.396,0.676 1.399,0.702 1.4,0.726 1.402,0.74 1.402,0.744 1.402,1.057 1.281,1.274 1.041,1.396 0.991,1.419 0.945,1.437 0.901,1.448 0.857,1.459 0.816,1.469 0.778,1.477 0.735,1.484 0.694,1.488 0.652,1.488 H 0 Z M 1.935,-1.511 H 1.928 c 0.031,-0.053 0.046,-0.104 0.046,-0.155 0,-0.041 -0.012,-0.084 -0.037,-0.128 -0.025,-0.044 -0.058,-0.081 -0.1,-0.111 -0.038,-0.027 -0.086,-0.04 -0.143,-0.04 -0.107,0 -0.19,0.044 -0.246,0.132 L 0.67,-0.572 H 0 v -1.094 c 0,-0.076 -0.028,-0.142 -0.084,-0.196 -0.055,-0.056 -0.122,-0.083 -0.202,-0.083 -0.077,0 -0.143,0.027 -0.197,0.083 -0.055,0.054 -0.083,0.12 -0.083,0.196 v 3.445 c 0,0.077 0.028,0.143 0.083,0.198 0.054,0.056 0.12,0.083 0.197,0.083 H 0.652 C 0.66,2.06 0.684,2.058 0.724,2.055 0.764,2.051 0.813,2.043 0.872,2.031 0.932,2.02 0.998,2.004 1.073,1.982 1.146,1.962 1.222,1.934 1.299,1.9 1.509,1.79 1.674,1.633 1.794,1.434 c 0.12,-0.201 0.18,-0.431 0.18,-0.69 0,-0.008 0,-0.032 -0.003,-0.072 C 1.969,0.632 1.963,0.583 1.951,0.523 1.939,0.464 1.923,0.398 1.903,0.323 1.882,0.249 1.852,0.173 1.813,0.097 V 0.103 C 1.757,-0.015 1.682,-0.12 1.591,-0.212 1.5,-0.304 1.393,-0.381 1.271,-0.446 Z"
             style="fill:#2a1d1b;fill-opacity:1;fill-rule:nonzero;stroke:none"
             id="path90" /></g><g
           id="g92"
           transform="translate(168.9259,14.3904)"><path
             d="m 0,0 c 0.019,-0.027 0.035,-0.058 0.051,-0.091 0.015,-0.034 0.023,-0.069 0.023,-0.104 0,-0.076 -0.029,-0.142 -0.087,-0.197 -0.055,-0.055 -0.123,-0.083 -0.199,-0.083 -0.035,0 -0.071,0.009 -0.109,0.026 -0.038,0.017 -0.073,0.039 -0.103,0.066 l -1.562,1.716 v -1.528 c 0,-0.076 -0.029,-0.142 -0.083,-0.197 -0.055,-0.055 -0.123,-0.083 -0.203,-0.083 -0.077,0 -0.144,0.028 -0.201,0.083 -0.056,0.055 -0.086,0.121 -0.086,0.197 V 3.25 c 0,0.077 0.03,0.143 0.086,0.198 0.057,0.055 0.124,0.083 0.201,0.083 0.08,0 0.148,-0.028 0.203,-0.083 0.054,-0.055 0.083,-0.121 0.083,-0.198 V 1.723 l 1.562,1.716 c 0.03,0.027 0.065,0.049 0.103,0.066 0.038,0.017 0.074,0.026 0.109,0.026 0.08,0 0.148,-0.028 0.203,-0.083 C 0.046,3.393 0.074,3.327 0.074,3.25 0.074,3.178 0.049,3.113 0,3.056 L -1.396,1.528 Z"
             style="fill:#2a1d1b;fill-opacity:1;fill-rule:nonzero;stroke:none"
             id="path94" /></g><g
           id="g96"
           transform="translate(173.3087,14.4021)"><path
             d="M 0,0 C 0.057,-0.057 0.085,-0.125 0.085,-0.207 0.085,-0.283 0.057,-0.349 0,-0.403 -0.058,-0.459 -0.124,-0.486 -0.201,-0.486 h -1.888 c -0.08,0 -0.148,0.027 -0.204,0.083 -0.055,0.054 -0.083,0.12 -0.083,0.196 v 3.445 c 0,0.077 0.028,0.143 0.083,0.198 0.056,0.056 0.124,0.083 0.204,0.083 h 1.888 C -0.124,3.519 -0.058,3.492 0,3.436 0.057,3.381 0.085,3.315 0.085,3.238 0.085,3.158 0.057,3.09 0,3.033 -0.058,2.976 -0.124,2.947 -0.201,2.947 H -1.803 V 1.796 h 1.259 c 0.076,0 0.142,-0.027 0.197,-0.082 0.056,-0.056 0.083,-0.122 0.083,-0.197 0,-0.077 -0.027,-0.142 -0.083,-0.198 C -0.402,1.264 -0.468,1.236 -0.544,1.236 H -1.803 V 0.085 h 1.602 C -0.124,0.085 -0.058,0.057 0,0"
             style="fill:#2a1d1b;fill-opacity:1;fill-rule:nonzero;stroke:none"
             id="path98" /></g><g
           id="g100"
           transform="translate(177.6749,17.9211)"><path
             d="m 0,0 c 0.08,0 0.148,-0.027 0.206,-0.083 0.057,-0.055 0.086,-0.121 0.086,-0.198 0,-0.08 -0.029,-0.148 -0.086,-0.205 C 0.148,-0.543 0.08,-0.572 0,-0.572 h -0.744 v -3.154 c 0,-0.076 -0.027,-0.142 -0.083,-0.196 -0.056,-0.056 -0.124,-0.083 -0.203,-0.083 -0.076,0 -0.142,0.027 -0.198,0.083 -0.055,0.054 -0.083,0.12 -0.083,0.196 v 3.154 H -2.06 c -0.077,0 -0.143,0.029 -0.201,0.086 -0.056,0.057 -0.086,0.125 -0.086,0.205 0,0.077 0.03,0.143 0.086,0.198 C -2.203,-0.027 -2.137,0 -2.06,0 Z"
             style="fill:#2a1d1b;fill-opacity:1;fill-rule:nonzero;stroke:none"
             id="path102" /></g><g
           id="g104"
           transform="translate(180.4659,15.8611)"><path
             d="M 0,0 H 0.653 C 0.954,0 1.17,0.112 1.3,0.337 1.323,0.384 1.341,0.43 1.354,0.478 1.368,0.526 1.378,0.569 1.386,0.606 1.394,0.645 1.398,0.676 1.4,0.702 1.401,0.726 1.403,0.74 1.403,0.744 1.403,1.057 1.282,1.274 1.042,1.396 0.993,1.419 0.946,1.437 0.902,1.448 0.858,1.459 0.817,1.469 0.778,1.477 0.737,1.484 0.695,1.488 0.653,1.488 H 0 Z m -0.285,-1.945 c -0.077,0 -0.142,0.027 -0.197,0.083 -0.056,0.054 -0.084,0.12 -0.084,0.196 v 3.445 c 0,0.077 0.028,0.143 0.084,0.198 0.055,0.056 0.12,0.083 0.197,0.083 H 0.653 C 0.661,2.06 0.685,2.058 0.726,2.055 0.765,2.051 0.814,2.043 0.874,2.031 0.933,2.02 1,2.004 1.073,1.982 1.148,1.962 1.224,1.934 1.3,1.9 1.51,1.79 1.675,1.633 1.795,1.434 c 0.12,-0.201 0.18,-0.431 0.18,-0.69 0,-0.008 0,-0.032 -0.002,-0.072 C 1.971,0.632 1.963,0.583 1.952,0.523 1.941,0.464 1.924,0.398 1.903,0.323 1.883,0.249 1.854,0.173 1.815,0.097 V 0.103 C 1.704,-0.114 1.549,-0.282 1.349,-0.397 1.148,-0.514 0.917,-0.572 0.653,-0.572 H 0 v -1.094 c 0,-0.076 -0.026,-0.142 -0.082,-0.196 -0.056,-0.056 -0.123,-0.083 -0.203,-0.083"
             style="fill:#2a1d1b;fill-opacity:1;fill-rule:nonzero;stroke:none"
             id="path106" /></g><g
           id="g108"
           transform="translate(184.673,13.9157)"><path
             d="M 0,0 C -0.08,0 -0.149,0.027 -0.206,0.083 -0.264,0.138 -0.292,0.204 -0.292,0.28 v 3.445 c 0,0.077 0.028,0.143 0.086,0.197 C -0.149,3.978 -0.08,4.005 0,4.005 0.077,4.005 0.142,3.978 0.197,3.922 0.253,3.868 0.281,3.802 0.281,3.725 V 0.572 h 1.258 c 0.08,0 0.149,-0.029 0.206,-0.086 C 1.803,0.429 1.831,0.361 1.831,0.28 1.831,0.204 1.803,0.138 1.745,0.083 1.688,0.027 1.619,0 1.539,0 Z"
             style="fill:#2a1d1b;fill-opacity:1;fill-rule:nonzero;stroke:none"
             id="path110" /></g><g
           id="g112"
           transform="translate(190.7042,15.3401)"><path
             d="M 0,0 -0.601,1.534 -1.207,0 Z m 1.035,-1.035 c 0.012,-0.031 0.018,-0.067 0.018,-0.11 0,-0.072 -0.026,-0.137 -0.074,-0.194 -0.05,-0.057 -0.12,-0.085 -0.208,-0.085 -0.052,0 -0.103,0.018 -0.153,0.057 -0.05,0.037 -0.088,0.08 -0.114,0.125 l -0.27,0.676 h -1.676 l -0.275,-0.676 c -0.023,-0.045 -0.059,-0.088 -0.108,-0.125 -0.05,-0.039 -0.102,-0.057 -0.155,-0.057 -0.084,0 -0.152,0.029 -0.203,0.088 -0.051,0.059 -0.077,0.124 -0.077,0.191 0,0.043 0.005,0.079 0.016,0.11 0.219,0.553 0.446,1.125 0.684,1.716 0.239,0.591 0.469,1.164 0.691,1.716 0.026,0.051 0.062,0.093 0.111,0.13 0.047,0.036 0.1,0.054 0.157,0.054 0.053,0 0.104,-0.018 0.152,-0.054 0.048,-0.037 0.085,-0.079 0.112,-0.13 z"
             style="fill:#2a1d1b;fill-opacity:1;fill-rule:nonzero;stroke:none"
             id="path114" /></g><g
           id="g116"
           transform="translate(195.9464,14.6594)"><path
             d="m 0,0 c 0.045,0.022 0.091,0.035 0.137,0.035 0.05,0 0.096,-0.013 0.142,-0.037 0.046,-0.025 0.082,-0.065 0.11,-0.118 0.038,-0.065 0.044,-0.134 0.019,-0.209 -0.024,-0.074 -0.069,-0.132 -0.134,-0.175 -0.145,-0.072 -0.3,-0.13 -0.466,-0.174 -0.165,-0.044 -0.329,-0.066 -0.489,-0.066 -0.275,0 -0.535,0.053 -0.778,0.158 -0.245,0.104 -0.458,0.248 -0.639,0.429 -0.181,0.181 -0.325,0.394 -0.429,0.638 -0.105,0.244 -0.158,0.503 -0.158,0.778 0,0.275 0.053,0.533 0.158,0.775 0.104,0.242 0.248,0.455 0.429,0.639 0.181,0.182 0.394,0.327 0.639,0.431 0.243,0.105 0.503,0.158 0.778,0.158 0.16,0 0.324,-0.023 0.489,-0.069 C -0.026,3.147 0.129,3.09 0.274,3.022 0.339,2.979 0.384,2.921 0.408,2.847 0.433,2.772 0.427,2.703 0.389,2.638 0.361,2.585 0.325,2.546 0.279,2.521 0.233,2.496 0.187,2.484 0.137,2.484 0.117,2.484 0.095,2.488 0.068,2.495 0.041,2.502 0.019,2.51 0,2.518 -0.1,2.572 -0.209,2.613 -0.326,2.644 -0.445,2.674 -0.563,2.689 -0.681,2.689 -0.876,2.689 -1.061,2.652 -1.233,2.578 -1.407,2.503 -1.559,2.401 -1.688,2.272 -1.818,2.143 -1.922,1.99 -1.997,1.817 -2.074,1.644 -2.112,1.458 -2.112,1.259 c 0,-0.198 0.038,-0.384 0.115,-0.558 0.075,-0.174 0.179,-0.326 0.309,-0.455 0.129,-0.129 0.281,-0.232 0.455,-0.306 0.172,-0.074 0.357,-0.112 0.552,-0.112 0.121,0 0.241,0.013 0.357,0.04 C -0.207,-0.105 -0.1,-0.061 0,0"
             style="fill:#2a1d1b;fill-opacity:1;fill-rule:nonzero;stroke:none"
             id="path118" /></g><g
           id="g120"
           transform="translate(200.672,14.4021)"><path
             d="M 0,0 C 0.058,-0.057 0.087,-0.125 0.087,-0.207 0.087,-0.283 0.058,-0.349 0,-0.403 -0.057,-0.459 -0.124,-0.486 -0.2,-0.486 h -1.888 c -0.08,0 -0.147,0.027 -0.203,0.083 -0.056,0.054 -0.084,0.12 -0.084,0.196 v 3.445 c 0,0.077 0.028,0.143 0.084,0.198 0.056,0.056 0.123,0.083 0.203,0.083 H -0.2 C -0.124,3.519 -0.057,3.492 0,3.436 0.058,3.381 0.087,3.315 0.087,3.238 0.087,3.158 0.058,3.09 0,3.033 -0.057,2.976 -0.124,2.947 -0.2,2.947 H -1.803 V 1.796 h 1.26 c 0.075,0 0.142,-0.027 0.197,-0.082 C -0.29,1.658 -0.264,1.592 -0.264,1.517 -0.264,1.44 -0.29,1.375 -0.346,1.319 -0.401,1.264 -0.468,1.236 -0.543,1.236 h -1.26 V 0.085 H -0.2 C -0.124,0.085 -0.057,0.057 0,0"
             style="fill:#2a1d1b;fill-opacity:1;fill-rule:nonzero;stroke:none"
             id="path122" /></g></g></g></g></svg>
