<?xml version="1.0" encoding="UTF-8"?>
<svg width="240px" height="98px" viewBox="0 0 240 98" version="1.1" xmlns="http://www.w3.org/2000/svg" xmlns:xlink="http://www.w3.org/1999/xlink">
    <!-- Generator: Sketch 63.1 (92452) - https://sketch.com -->
    <title>logo-inetel-240</title>
    <desc>Created with Sketch.</desc>
    <g id="Page-1" stroke="none" stroke-width="1" fill="none" fill-rule="evenodd">
        <g id="logo-inetel-240">
            <path d="M13.0482545,95.6854232 C11.7369818,96.9519686 10.2053455,97.5879686 8.45770909,97.5879686 C6.7068,97.5879686 5.19807273,96.9519686 3.93152727,95.6854232 C2.6628,94.4188777 2.03007273,92.9101505 2.03007273,91.1603323 L2.03007273,48.0050595 C2.03007273,46.1679686 2.6628,44.6166959 3.93152727,43.3479686 C5.19807273,42.0814232 6.7068,41.4465141 8.45770909,41.4465141 C10.2053455,41.4465141 11.7369818,42.0814232 13.0482545,43.3479686 C14.3595273,44.6166959 15.0162545,46.1679686 15.0162545,48.0050595 L15.0162545,91.1603323 C15.0162545,92.9101505 14.3595273,94.4188777 13.0482545,95.6854232" id="Fill-21" fill="#00759A"></path>
            <path d="M66.9596727,48.1357505 C62.5851273,43.6761141 56.8589455,41.4462959 49.7756727,41.4462959 C46.2324,41.4462959 43.0458545,41.9819323 40.2105818,43.0444777 C40.1920364,43.0510232 40.1724,43.053205 40.1549455,43.0608414 C38.4258545,43.7688414 37.2444,43.1164777 36.8353091,42.8219323 C36.8156727,42.8077505 36.7960364,42.7935686 36.7764,42.7793868 C36.7109455,42.7281141 36.6738545,42.6942959 36.6738545,42.6942959 L36.6716727,42.7008414 C35.5425818,41.8706595 34.2727636,41.4462959 32.8545818,41.4462959 C31.1069455,41.4462959 29.5982182,42.081205 28.3294909,43.3488414 C27.0629455,44.6142959 26.4280364,46.1230232 26.4280364,47.8739323 L26.4280364,63.6146595 L26.4280364,65.7113868 L26.4280364,91.1601141 C26.4280364,92.9099323 27.0607636,94.4186595 28.3294909,95.685205 C29.5960364,96.9528414 31.1047636,97.5877505 32.8545818,97.5877505 C34.6916727,97.5877505 36.2429455,96.9528414 37.5116727,95.685205 C38.7782182,94.4186595 39.4131273,92.9099323 39.4131273,91.1601141 L39.4131273,67.5495686 C39.4131273,61.5157505 39.8069455,57.3626595 40.5934909,55.0881141 C41.9920364,50.8902959 45.0542182,48.7913868 49.7756727,48.7913868 C54.3214909,48.7913868 57.3389455,50.8902959 58.8269455,55.0881141 C59.6134909,57.3626595 60.0073091,61.5157505 60.0073091,67.5495686 L60.0073091,91.1601141 C60.0073091,92.9099323 60.6629455,94.4186595 61.9753091,95.685205 C63.2865818,96.9528414 64.8160364,97.5877505 66.5658545,97.5877505 C68.3145818,97.5877505 69.8222182,96.9528414 71.0909455,95.685205 C72.3585818,94.4186595 72.9934909,92.9099323 72.9934909,91.1601141 L72.9934909,63.6146595 C72.9934909,57.3179323 70.9807636,52.1590232 66.9596727,48.1357505" id="Fill-23" fill="#00759A"></path>
            <path d="M120.475745,87.3561141 L118.901564,87.7499323 C114.966655,89.2379323 111.293564,89.9797505 107.883382,89.9797505 C104.558291,89.9797505 101.672836,88.5364777 99.2259273,85.6510232 C95.9902909,81.8917505 94.3724727,76.5135686 94.3724727,69.5164777 C94.3724727,62.433205 95.8157455,56.9688414 98.7012,53.1201141 C100.974655,50.0601141 103.685564,48.5295686 106.833927,48.5295686 C111.468109,48.5295686 113.786291,51.1979323 113.786291,56.5302959 C113.786291,62.421205 110.841927,66.2350232 104.955382,67.977205 L104.955382,67.977205 C104.955382,67.977205 102.425564,68.8259323 102.425564,71.4757505 C102.425564,74.097205 104.5932,74.6830232 106.784836,74.3982959 C110.812473,73.7808414 114.328473,72.5928414 117.327382,70.8288414 C122.486291,67.6804777 125.066291,63.1346595 125.066291,57.1870232 C125.066291,53.0775686 123.710291,49.5353868 121.000473,46.5615686 C117.852109,43.1513868 113.435018,41.4462959 107.752473,41.4462959 C100.580836,41.4462959 94.5470182,43.7208414 89.6499273,48.2666595 C83.8790182,53.5139323 80.9935636,60.597205 80.9935636,69.5164777 C80.9935636,78.4357505 83.3095636,85.4339323 87.9459273,90.5044777 C92.2288364,95.2259323 98.0881091,97.5877505 105.521564,97.5877505 C112.4292,97.5877505 117.764836,96.6244777 121.5252,94.701205 C123.362291,93.9146595 124.279745,92.7342959 124.279745,91.1601141 C124.279745,90.3735686 124.103018,89.7626595 123.755018,89.3241141 C123.054655,88.0117505 121.961564,87.3561141 120.475745,87.3561141" id="Fill-24" fill="#00759A"></path>
            <path d="M201.399382,87.3561141 L199.8252,87.7499323 C195.890291,89.2379323 192.2172,89.9797505 188.807018,89.9797505 C185.481927,89.9797505 182.596473,88.5364777 180.149564,85.6510232 C176.913927,81.8917505 175.296109,76.5135686 175.296109,69.5164777 C175.296109,62.433205 176.739382,56.9688414 179.624836,53.1201141 C181.898291,50.0601141 184.6092,48.5295686 187.757564,48.5295686 C192.391745,48.5295686 194.709927,51.1979323 194.709927,56.5302959 C194.709927,62.421205 191.765564,66.2350232 185.879018,67.977205 L185.879018,67.977205 C185.879018,67.977205 183.3492,68.8259323 183.3492,71.4757505 C183.3492,74.097205 185.516836,74.6830232 187.708473,74.3982959 C191.736109,73.7808414 195.252109,72.5928414 198.251018,70.8288414 C203.409927,67.6804777 205.989927,63.1346595 205.989927,57.1870232 C205.989927,53.0775686 204.633927,49.5353868 201.924109,46.5615686 C198.775745,43.1513868 194.358655,41.4462959 188.676109,41.4462959 C181.504473,41.4462959 175.470655,43.7208414 170.573564,48.2666595 C164.802655,53.5139323 161.9172,60.597205 161.9172,69.5164777 C161.9172,78.4357505 164.2332,85.4339323 168.869564,90.5044777 C173.152473,95.2259323 179.011745,97.5877505 186.4452,97.5877505 C193.352836,97.5877505 198.688473,96.6244777 202.448836,94.701205 C204.285927,93.9146595 205.203382,92.7342959 205.203382,91.1601141 C205.203382,90.3735686 205.026655,89.7626595 204.678655,89.3241141 C203.978291,88.0117505 202.8852,87.3561141 201.399382,87.3561141" id="Fill-25" fill="#00759A"></path>
            <path d="M157.369855,91.2912414 C152.208764,90.4185141 148.667673,87.9257868 146.745491,83.8141505 C145.782218,81.7152414 145.302218,76.9937868 145.302218,69.647605 L145.302218,51.1523323 C145.302218,50.7159686 145.519309,50.4966959 145.957855,50.4966959 L154.950218,50.4966959 C157.082945,50.4966959 158.813127,48.767605 158.813127,46.6348777 C158.813127,44.5010595 157.082945,42.7577868 154.950218,42.7577868 L154.729855,42.7577868 C145.413491,42.7577868 145.414582,32.5010595 145.414582,32.5010595 C145.319673,30.9268777 144.695673,29.5348777 143.531673,28.3294232 C142.262945,27.0170595 140.796764,26.3614232 139.1364,26.3614232 C137.386582,26.3614232 135.877855,27.0170595 134.611309,28.3294232 C133.342582,29.6406959 132.709855,31.1712414 132.709855,32.9199686 L132.709855,42.2330595 L132.577855,51.1523323 L132.446945,74.1083323 C132.359673,80.4923323 133.582582,85.5192414 136.120036,89.1923323 C138.042218,91.8159686 140.796764,93.9148777 144.383673,95.4890595 C147.443673,96.8865141 150.503673,97.5879686 153.565855,97.5879686 C154.353491,97.5879686 155.051673,97.5650595 155.664764,97.5214232 C156.275673,97.4766959 156.8004,97.4112414 157.238945,97.3250595 C159.337855,97.2366959 160.387309,96.2330595 160.387309,94.3086959 C160.387309,92.7345141 159.3804,91.7297868 157.369855,91.2912414" id="Fill-26" fill="#00759A"></path>
            <path d="M236.026909,91.2911323 C232.44,90.418405 229.904727,88.4940414 228.418909,85.5191323 C227.282182,83.158405 226.713818,78.8754959 226.713818,72.6649505 L226.713818,19.6718595 C226.713818,17.8358595 226.078909,16.2834959 224.812364,15.0147686 C223.542545,13.7482232 221.991273,13.1133141 220.155273,13.1133141 C218.405455,13.1133141 216.896727,13.7482232 215.630182,15.0147686 C214.361455,16.2834959 213.727636,17.8358595 213.727636,19.6718595 L213.727636,30.6769505 C213.486545,30.6594959 213.245455,30.6431323 213.004364,30.6289505 C203.257091,29.8849505 193.644,27.6202232 184.300364,24.814405 C174.932727,22.0074959 165.813818,18.5733141 156.560727,15.2296777 C147.309818,11.8773141 137.952,8.50313227 128.152364,5.67549591 C123.250909,4.26931409 118.240364,2.98858682 113.069455,2.01658682 C107.898545,1.05222318 102.583636,0.362768634 97.1869091,0.114041362 C95.8450909,0.0125868163 94.4825455,0.0420413618 93.1309091,0.0125868163 C91.7923636,-0.0343222746 90.3872727,0.0616777254 89.0094545,0.107495907 C88.3156364,0.119495907 87.636,0.196950453 86.9530909,0.261314089 L84.9076364,0.457677725 C83.5625455,0.638768634 82.2207273,0.835132271 80.8930909,1.05331409 C75.6087273,2.00567773 70.6003636,3.44567773 65.856,5.15622318 C56.3585455,8.58385954 47.7458182,12.862405 39.2214545,17.1071323 C31.6887273,20.9111323 24.2312727,24.7456777 16.4105455,28.1242232 C17.3716364,26.6820414 17.856,25.030405 17.856,23.1649505 C17.856,20.6536777 16.9810909,18.5242232 15.2345455,16.7765868 C13.4869091,15.0311323 11.4109091,14.1551323 9.00981818,14.1551323 C6.49636364,14.1551323 4.36690909,15.0311323 2.62145455,16.7765868 C0.872727273,18.5242232 3.10055012e-14,20.6536777 3.10055012e-14,23.1649505 C3.10055012e-14,25.678405 0.872727273,27.8078595 2.62145455,29.554405 C4.36690909,31.3020414 6.49636364,32.1747686 9.00981818,32.1747686 C10.1203636,32.1747686 11.1578182,31.9794959 12.1287273,31.606405 L12.1287273,31.6151323 C12.9109091,31.3533141 13.6898182,31.0882232 14.4632727,30.8154959 C23.8363636,27.4794959 32.5898182,23.3831323 41.3618182,19.4394959 C50.0956364,15.4620414 58.8327273,11.4998595 68.0509091,8.50967773 C72.6578182,7.03258682 77.3618182,5.77585954 82.1607273,5.02422318 C83.3618182,4.85404136 84.5661818,4.70458682 85.7672727,4.56604136 L87.576,4.43295045 C88.1781818,4.38931409 88.7803636,4.33149591 89.3814545,4.33695045 C90.5901818,4.32713227 91.7694545,4.258405 93.0174545,4.33149591 C94.2490909,4.38604136 95.4807273,4.37949591 96.7112727,4.50167773 C101.634545,4.83222318 106.525091,5.56967773 111.333818,6.57549591 C116.150182,7.56495045 120.892364,8.82822318 125.570182,10.2442232 C134.929091,13.0827686 144.032727,16.5038595 153.190909,19.9707686 C157.765091,21.7129505 162.388364,23.422405 167.061818,25.1002232 C171.735273,26.7758595 176.477455,28.3991323 181.341818,29.8838595 C191.047636,32.8413141 201.295636,35.3449505 212.168727,36.2285868 C212.689091,36.2569505 213.208364,36.2929505 213.727636,36.3289505 L213.727636,76.3380414 C213.727636,90.5045868 219.847636,97.5878595 232.092,97.5878595 C232.964727,97.5878595 233.708727,97.5649505 234.321818,97.522405 C234.932727,97.4765868 235.457455,97.4111323 235.896,97.3249505 C237.994909,97.2376777 239.044364,96.2329505 239.044364,94.3085868 C239.044364,92.8227686 238.037455,91.8158595 236.026909,91.2911323" id="Fill-27" fill="#00759A"></path>
            <path d="M15.2350909,16.7762595 C15.414,16.9551686 15.5765455,17.1406232 15.7369091,17.3271686 C19.9729091,19.0082595 24.0976364,20.8126232 28.2452727,22.6158959 C29.01,22.2384414 29.7714545,21.8555323 30.534,21.474805 C30.4172727,21.4289868 30.2983636,21.3831686 30.1805455,21.3373505 C24.1587273,19.0082595 18.1434545,16.6006232 11.7496364,14.5878959 C13.0270909,15.0089868 14.1910909,15.7333505 15.2350909,16.7762595" id="Fill-28" fill="#005A8B"></path>
            <path d="M154.2072,14.3813868 C155.028655,14.3377505 155.8512,14.2679323 156.671564,14.2548414 C157.553018,14.2450232 158.413745,14.199205 159.313745,14.2155686 L162.015927,14.2679323 L163.367564,14.2930232 L164.043927,14.3061141 L164.720291,14.3442959 L167.426836,14.5002959 C168.329018,14.5581141 169.232291,14.5875686 170.133382,14.6835686 L172.837745,14.9279323 C173.738836,15.0108414 174.641018,15.0828414 175.539927,15.1995686 C182.746473,15.987205 189.890836,17.175205 197.076655,18.3806595 C202.589018,19.3046595 208.122109,20.2679323 213.728291,21.135205 L213.728291,19.6722959 C213.728291,19.0613868 213.824291,18.4941141 213.963927,17.9453868 C208.821382,17.0770232 203.686473,16.1257505 198.5112,15.1973868 C191.316655,13.9068414 184.010836,12.699205 176.513018,11.8395686 C175.584655,11.715205 174.635564,11.6344777 173.690836,11.5450232 L170.854473,11.2777505 C169.914109,11.175205 168.950836,11.1381141 167.996291,11.0737505 L165.1272,10.8981141 L164.410473,10.8566595 L163.686109,10.839205 L162.238473,10.8053868 L159.3432,10.7399323 C158.377745,10.7213868 157.371927,10.7639323 156.387927,10.7737505 C155.396291,10.7879323 154.421018,10.8697505 153.437018,10.9155686 C151.107927,11.0781141 148.821382,11.3377505 146.570836,11.6595686 C149.129018,12.5595686 151.6752,13.4661141 154.2072,14.3813868" id="Fill-29" fill="#005A8B"></path>
            <path d="M135.987164,13.6681505 C134.369345,14.0445141 132.768982,14.4405141 131.191527,14.8539686 C127.682073,15.7757868 124.259891,16.7837868 120.887891,17.8234232 C117.5148,18.8652414 114.1788,19.925605 110.877709,21.0077868 C104.268982,23.1590595 97.7006182,25.2830595 90.9457091,27.0448777 C87.5715273,27.9241505 84.1482545,28.7085141 80.6726182,29.3226959 C77.2035273,29.9466959 73.6733455,30.4037868 70.1213455,30.6099686 C69.2333455,30.6852414 68.3453455,30.6808777 67.4551636,30.7157868 C66.5551636,30.7605141 65.7042545,30.7179686 64.8315273,30.7125141 C64.3973455,30.7157868 63.9642545,30.6797868 63.5289818,30.6514232 L62.2242545,30.569605 C61.3569818,30.4834232 60.4875273,30.3906959 59.6213455,30.2848777 C56.1577091,29.8190595 52.7638909,29.0379686 49.4388,28.1226959 C44.1031636,26.6325141 38.9911636,24.7528777 33.9238909,22.793605 C33.0686182,23.177605 32.2144364,23.5605141 31.3548,23.9412414 C36.6304364,26.1852414 42.0086182,28.3877868 47.8558909,30.2041505 C51.2791636,31.2645141 54.8933455,32.1590595 58.7071636,32.7503323 C59.6649818,32.885605 60.6326182,33.0077868 61.6035273,33.1201505 L63.0795273,33.2423323 C63.5726182,33.281605 64.0624364,33.329605 64.5642545,33.3372414 C65.5569818,33.365605 66.5715273,33.425605 67.5380727,33.3961505 C68.5122545,33.377605 69.4962545,33.3961505 70.4638909,33.3328777 C74.3584364,33.1790595 78.1940727,32.7514232 81.9249818,32.1525141 C85.6569818,31.5481505 89.2733455,30.7539686 92.8100727,29.8812414 C99.8813455,28.1259686 106.634073,26.0314232 113.309345,23.9510595 C119.9868,21.8750595 126.567164,19.7434232 133.327527,18.0012414 C136.311164,17.2299686 139.335164,16.5317868 142.387527,15.9448777 C140.260255,15.1681505 138.125345,14.4110595 135.987164,13.6681505" id="Fill-30" fill="#005A8B"></path>
        </g>
    </g>
</svg>