<svg xmlns="http://www.w3.org/2000/svg" width="500" height="189" viewBox="0 0 500 189" fill="none"><path fill-rule="evenodd" clip-rule="evenodd" d="M4.63435e-05 53.2271H169.746C169.746 49.3552 167.687 45.7753 164.34 43.8279L92.2679 1.8879C87.9611 -0.618239 82.643 -0.629997 78.3253 1.85708L5.41913 43.8518C2.06632 45.7831 4.63435e-05 49.3578 4.63435e-05 53.2271ZM0 80.9222H71.4719V188.13L6.93948 150.748C2.64436 148.26 0 143.673 0 138.709V80.9222ZM169.746 80.9222H98.2743V188.13L162.807 150.748C167.102 148.26 169.746 143.673 169.746 138.709V80.9222Z" fill="url(#paint0_linear_78_130)"></path><path d="M388.56 64.6212C383.959 64.0276 380.731 63.7308 378.876 63.7308C377.058 63.7308 375.871 63.8977 375.314 64.2317C374.795 64.5656 374.535 65.1036 374.535 65.8456C374.535 66.5506 374.887 67.0515 375.592 67.3483C376.334 67.608 378.189 68.0162 381.158 68.5727C384.163 69.0921 386.296 69.9641 387.558 71.1884C388.819 72.4128 389.45 74.3978 389.45 77.1435C389.45 83.1541 385.721 86.1595 378.264 86.1595C375.815 86.1595 372.847 85.8255 369.359 85.1577L367.578 84.8238L367.801 78.5905C372.401 79.1841 375.592 79.4809 377.373 79.4809C379.191 79.4809 380.416 79.314 381.046 78.98C381.714 78.609 382.048 78.071 382.048 77.3661C382.048 76.6611 381.696 76.1417 380.991 75.8078C380.323 75.4738 378.542 75.0657 375.648 74.5834C372.791 74.101 370.658 73.2848 369.248 72.1346C367.838 70.9844 367.133 68.9437 367.133 66.0126C367.133 63.0444 368.135 60.8182 370.138 59.3341C372.142 57.8129 374.72 57.0522 377.874 57.0522C380.063 57.0522 383.05 57.4047 386.834 58.1097L388.671 58.4436L388.56 64.6212Z" fill="#07756B"></path><path d="M362.027 66.3465V77.9226C362.101 78.8131 362.25 79.4438 362.472 79.8149C362.695 80.1488 363.159 80.3899 363.864 80.5384L363.641 86.1594C361.749 86.1594 360.228 86.0296 359.078 85.7699C357.964 85.5101 356.833 84.9907 355.683 84.2115C353.011 85.5102 350.284 86.1594 347.501 86.1594C341.75 86.1594 338.875 83.117 338.875 77.0321C338.875 74.0639 339.673 71.9676 341.268 70.7432C342.864 69.4817 345.312 68.7396 348.615 68.517L354.57 68.0718V66.3465C354.57 65.1963 354.31 64.4172 353.79 64.009C353.271 63.5638 352.436 63.3412 351.286 63.3412L340.823 63.7864L340.6 58.6106C344.57 57.5346 348.336 56.9966 351.898 56.9966C355.497 56.9966 358.076 57.7386 359.634 59.2228C361.229 60.7069 362.027 63.0815 362.027 66.3465ZM349.505 73.6929C347.427 73.8784 346.388 74.9915 346.388 77.0321C346.388 79.0728 347.297 80.0931 349.115 80.0931C350.525 80.0931 352.065 79.8705 353.735 79.4253L354.57 79.2027V73.2476L349.505 73.6929Z" fill="#07756B"></path><path d="M326.837 56.9966C328.766 56.9966 331.234 57.2934 334.239 57.8871L335.742 58.221L335.519 64.1203C332.588 63.8235 330.417 63.6751 329.007 63.6751C326.447 63.6751 324.741 64.2316 323.887 65.3447C323.071 66.4207 322.663 68.4799 322.663 71.5224C322.663 74.5648 323.071 76.6611 323.887 77.8113C324.741 78.9244 326.466 79.4809 329.063 79.4809L335.519 79.0357L335.742 84.9907C331.771 85.7699 328.748 86.1594 326.67 86.1594C322.551 86.1594 319.583 85.0093 317.765 82.7089C315.984 80.3714 315.094 76.6426 315.094 71.5224C315.094 66.4022 316.021 62.7104 317.876 60.4472C319.732 58.1468 322.718 56.9966 326.837 56.9966Z" fill="#07756B"></path><path d="M302.638 85.4917V57.6646H310.095V85.4917H302.638ZM302.638 54.1027V46.5337H310.095V54.1027H302.638Z" fill="#07756B"></path><path d="M279.89 85.4916H272.433V57.6644H279.835V59.2228C282.358 57.7386 284.677 56.9966 286.791 56.9966C290.502 56.9966 293.062 58.0911 294.472 60.2802C295.882 62.4693 296.587 65.8456 296.587 70.4093V85.4916H289.129V70.6319C289.129 68.2573 288.851 66.5135 288.294 65.4004C287.738 64.2502 286.624 63.6751 284.955 63.6751C283.434 63.6751 281.968 63.9348 280.558 64.4543L279.89 64.6769V85.4916Z" fill="#07756B"></path><path d="M258.558 56.9966C260.488 56.9966 262.955 57.2934 265.961 57.8871L267.463 58.221L267.241 64.1203C264.309 63.8235 262.139 63.6751 260.729 63.6751C258.169 63.6751 256.462 64.2316 255.609 65.3447C254.793 66.4207 254.384 68.4799 254.384 71.5224C254.384 74.5648 254.793 76.6611 255.609 77.8113C256.462 78.9244 258.187 79.4809 260.785 79.4809L267.241 79.0357L267.463 84.9907C263.493 85.7699 260.469 86.1594 258.392 86.1594C254.273 86.1594 251.305 85.0093 249.487 82.7089C247.706 80.3714 246.815 76.6426 246.815 71.5224C246.815 66.4022 247.743 62.7104 249.598 60.4472C251.453 58.1468 254.44 56.9966 258.558 56.9966Z" fill="#07756B"></path><path d="M226.459 74.7504C226.496 76.4571 226.941 77.7001 227.795 78.4792C228.685 79.2213 229.947 79.5923 231.579 79.5923C235.03 79.5923 238.109 79.481 240.818 79.2584L242.376 79.0914L242.488 84.6012C238.221 85.6401 234.362 86.1595 230.911 86.1595C226.719 86.1595 223.676 85.0465 221.784 82.8203C219.892 80.5941 218.946 76.9766 218.946 71.9677C218.946 61.987 223.046 56.9967 231.245 56.9967C239.334 56.9967 243.378 61.1893 243.378 69.5745L242.822 74.7504H226.459ZM236.032 69.0737C236.032 66.8475 235.679 65.3077 234.974 64.4544C234.269 63.5639 233.026 63.1187 231.245 63.1187C229.502 63.1187 228.259 63.5824 227.517 64.51C226.812 65.4005 226.441 66.9217 226.403 69.0737H236.032ZM222.73 49.2607L236.755 43.584L238.981 49.9842L224.4 54.1026L222.73 49.2607Z" fill="#07756B"></path><path d="M192.731 54.4363V47.6465H220.558V54.4363H210.54V85.4914H202.86V54.4363H192.731Z" fill="#07756B"></path><path d="M499.11 125.842C494.509 125.248 491.281 124.951 489.426 124.951C487.608 124.951 486.42 125.118 485.864 125.452C485.344 125.786 485.085 126.324 485.085 127.066C485.085 127.771 485.437 128.272 486.142 128.569C486.884 128.829 488.739 129.237 491.708 129.793C494.713 130.313 496.846 131.185 498.108 132.409C499.369 133.634 500 135.619 500 138.364C500 144.375 496.271 147.38 488.813 147.38C486.365 147.38 483.396 147.046 479.909 146.378L478.128 146.044L478.35 139.811C482.951 140.405 486.142 140.702 487.923 140.702C489.741 140.702 490.965 140.535 491.596 140.201C492.264 139.83 492.598 139.292 492.598 138.587C492.598 137.882 492.245 137.362 491.541 137.028C490.873 136.695 489.092 136.286 486.198 135.804C483.341 135.322 481.207 134.505 479.797 133.355C478.388 132.205 477.683 130.164 477.683 127.233C477.683 124.265 478.684 122.039 480.688 120.555C482.692 119.034 485.27 118.273 488.424 118.273C490.613 118.273 493.6 118.625 497.384 119.33L499.221 119.664L499.11 125.842Z" fill="#07756B"></path><path d="M472.577 127.567V139.143C472.651 140.034 472.8 140.665 473.022 141.036C473.245 141.369 473.709 141.611 474.414 141.759L474.191 147.38C472.299 147.38 470.778 147.25 469.627 146.991C468.514 146.731 467.383 146.211 466.232 145.432C463.561 146.731 460.834 147.38 458.051 147.38C452.3 147.38 449.425 144.338 449.425 138.253C449.425 135.285 450.223 133.188 451.818 131.964C453.413 130.702 455.862 129.96 459.164 129.738L465.119 129.292V127.567C465.119 126.417 464.86 125.638 464.34 125.23C463.821 124.784 462.986 124.562 461.836 124.562L451.373 125.007L451.15 119.831C455.12 118.755 458.886 118.217 462.448 118.217C466.047 118.217 468.626 118.959 470.184 120.443C471.779 121.928 472.577 124.302 472.577 127.567ZM460.055 134.914C457.977 135.099 456.938 136.212 456.938 138.253C456.938 140.293 457.847 141.314 459.665 141.314C461.075 141.314 462.615 141.091 464.284 140.646L465.119 140.423V134.468L460.055 134.914Z" fill="#07756B"></path><path d="M421.81 118.885H429.601L434.054 140.367H435.612L440.287 118.885H447.856L441.177 146.712H428.488L421.81 118.885Z" fill="#07756B"></path><path d="M410.634 146.712V118.885H418.091V146.712H410.634ZM410.634 115.323V107.754H418.091V115.323H410.634Z" fill="#07756B"></path><path d="M406.334 125.229H399.488V136.639C399.488 137.752 399.507 138.549 399.544 139.032C399.618 139.477 399.822 139.867 400.156 140.2C400.527 140.534 401.084 140.701 401.826 140.701L406.056 140.59L406.389 146.545C403.904 147.102 402.011 147.38 400.713 147.38C397.373 147.38 395.092 146.638 393.867 145.154C392.643 143.632 392.031 140.85 392.031 136.806V125.229H388.747V118.885H392.031V111.149H399.488V118.885H406.334V125.229Z" fill="#07756B"></path><path d="M377.126 146.712V118.885H384.584V146.712H377.126ZM377.126 115.323V107.754H384.584V115.323H377.126Z" fill="#07756B"></path><path d="M372.826 125.229H365.981V136.639C365.981 137.752 365.999 138.549 366.036 139.032C366.11 139.477 366.314 139.867 366.648 140.2C367.019 140.534 367.576 140.701 368.318 140.701L372.548 140.59L372.882 146.545C370.396 147.102 368.504 147.38 367.205 147.38C363.866 147.38 361.584 146.638 360.359 145.154C359.135 143.632 358.523 140.85 358.523 136.806V125.229H355.239V118.885H358.523V111.149H365.981V118.885H372.826V125.229Z" fill="#07756B"></path><path d="M335.717 135.971C335.755 137.678 336.2 138.921 337.053 139.7C337.944 140.442 339.205 140.813 340.838 140.813C344.288 140.813 347.368 140.702 350.076 140.479L351.635 140.312L351.746 145.822C347.479 146.861 343.62 147.38 340.17 147.38C335.977 147.38 332.935 146.267 331.042 144.041C329.15 141.815 328.204 138.197 328.204 133.188C328.204 123.208 332.304 118.217 340.504 118.217C348.592 118.217 352.636 122.41 352.636 130.795L352.08 135.971H335.717ZM345.29 130.294C345.29 128.068 344.937 126.528 344.233 125.675C343.528 124.784 342.285 124.339 340.504 124.339C338.76 124.339 337.517 124.803 336.775 125.731C336.07 126.621 335.699 128.142 335.662 130.294H345.29Z" fill="#07756B"></path><path d="M299.879 158.4V118.885H307.281V120.388C309.693 118.941 311.807 118.217 313.626 118.217C317.373 118.217 320.137 119.349 321.918 121.612C323.699 123.838 324.589 127.641 324.589 133.021C324.589 138.401 323.606 142.149 321.64 144.264C319.673 146.341 316.445 147.38 311.956 147.38C310.731 147.38 309.414 147.269 308.004 147.046L307.337 146.935V158.4H299.879ZM312.179 124.896C310.806 124.896 309.414 125.174 308.004 125.731L307.337 126.009V140.59C309.006 140.813 310.36 140.924 311.399 140.924C313.551 140.924 315.017 140.294 315.796 139.032C316.612 137.771 317.02 135.619 317.02 132.576C317.02 127.456 315.406 124.896 312.179 124.896Z" fill="#07756B"></path><path d="M261.207 146.712H253.749V118.885H261.151V120.443C263.711 118.959 265.9 118.217 267.718 118.217C270.724 118.217 273.043 119.089 274.675 120.833C278.089 119.089 281.205 118.217 284.025 118.217C287.698 118.217 290.24 119.293 291.65 121.445C293.097 123.56 293.82 126.955 293.82 131.63V146.712H286.362V131.853C286.362 129.478 286.103 127.734 285.583 126.621C285.064 125.471 284.025 124.896 282.467 124.896C281.279 124.896 279.832 125.156 278.126 125.675L277.291 125.953C277.439 128.736 277.513 130.851 277.513 132.298V146.712H270.056V132.409C270.056 129.664 269.815 127.734 269.332 126.621C268.85 125.471 267.792 124.896 266.16 124.896C264.713 124.896 263.284 125.156 261.875 125.675L261.207 125.898V146.712Z" fill="#07756B"></path><path d="M226.187 122.057C228.154 119.497 231.438 118.217 236.038 118.217C240.639 118.217 243.923 119.497 245.889 122.057C247.856 124.58 248.839 128.142 248.839 132.743C248.839 142.501 244.572 147.38 236.038 147.38C227.505 147.38 223.238 142.501 223.238 132.743C223.238 128.142 224.221 124.58 226.187 122.057ZM231.92 139.032C232.699 140.368 234.072 141.036 236.038 141.036C238.005 141.036 239.359 140.368 240.101 139.032C240.88 137.696 241.27 135.6 241.27 132.743C241.27 129.886 240.88 127.808 240.101 126.51C239.359 125.211 238.005 124.562 236.038 124.562C234.072 124.562 232.699 125.211 231.92 126.51C231.178 127.808 230.807 129.886 230.807 132.743C230.807 135.6 231.178 137.696 231.92 139.032Z" fill="#07756B"></path><path d="M220.113 146.099C216.18 146.953 212.637 147.379 209.483 147.379C206.329 147.379 203.806 146.99 201.914 146.211C200.022 145.431 198.538 144.189 197.462 142.482C196.386 140.775 195.644 138.772 195.236 136.471C194.828 134.171 194.624 131.277 194.624 127.789C194.624 120.48 195.644 115.397 197.685 112.54C199.762 109.646 203.565 108.199 209.094 108.199C212.285 108.199 215.976 108.7 220.169 109.701L219.946 115.823C216.273 115.267 213.212 114.989 210.763 114.989C208.352 114.989 206.626 115.322 205.587 115.99C204.549 116.621 203.769 117.845 203.25 119.664C202.768 121.482 202.526 124.58 202.526 128.958C202.526 133.336 203.027 136.378 204.029 138.085C205.068 139.755 207.109 140.59 210.151 140.59C213.231 140.59 216.496 140.33 219.946 139.81L220.113 146.099Z" fill="#07756B"></path><defs><linearGradient id="paint0_linear_78_130" x1="84.8731" y1="0" x2="84.8731" y2="188.13" gradientUnits="userSpaceOnUse"><stop stop-color="#074875"></stop><stop offset="1" stop-color="#07756B"></stop></linearGradient></defs></svg>