<svg width="1165" height="1644" viewBox="0 0 1165 1644" fill="none" xmlns="http://www.w3.org/2000/svg">
<path d="M854.5 0L609.5 288L881 216.5L854.5 0Z" fill="#1F4171"/>
<path d="M854.5 0L609.5 288L503 164.5L854.5 0Z" fill="#183869"/>
<path d="M854.5 0L316.5 4L503 164.5L854.5 0Z" fill="#0F2A59"/>
<path d="M281.5 237.5L316.5 4L503 164.5L281.5 237.5Z" fill="#0C224C"/>
<path d="M281.5 237.5L316.5 4L0 279.5L281.5 237.5Z" fill="#0A1942"/>
<path d="M281.5 237.5L357 469L0 279.5L281.5 237.5Z" fill="#0E2352"/>
<path d="M179.5 576.5L357 469L0 279.5L179.5 576.5Z" fill="#15295B"/>
<path d="M179.5 576.5L0 696V279.5L179.5 576.5Z" fill="#101E53"/>
<path d="M179.5 576.5L0 696L284.5 871L179.5 576.5Z" fill="#172C62"/>
<path d="M179.5 576.5L357 469L284.5 871L179.5 576.5Z" fill="#1A3A73"/>
<path d="M574 814.5L357 469L284.5 871L574 814.5Z" fill="#20478C"/>
<path d="M574 814.5L357 469L865 753L574 814.5Z" fill="#296099"/>
<path d="M574 814.5L799 1164L865 753L574 814.5Z" fill="#4171A1"/>
<path d="M972.5 1064L1162.5 940L865 753L972.5 1064Z" fill="#4E8BBA"/>
<path d="M972.5 1064L1162.5 940L865 753L972.5 1064Z" fill="#61A0C1"/>
<path d="M973 1064.5L1163 940.5L865.5 753.5L973 1064.5Z" fill="#61A0C1"/>
<path d="M973 1064.5L1163 940.5L865.5 753.5L973 1064.5Z" fill="#61A0C1"/>
<path d="M973 1064.5L799 1164L865 753L973 1064.5Z" fill="#4E8ABC"/>
<path d="M973 1064.5L799 1164L865 753L973 1064.5Z" fill="#4E8ABC"/>
<path d="M973 1064.5L799 1164L1165 1356L973 1064.5Z" fill="#5A99C3"/>
<path d="M973 1064.5L799 1164L1165 1356L973 1064.5Z" fill="#5A99C3"/>
<path d="M873 1403L799 1164L1165 1356L873 1403Z" fill="#6BABD1"/>
<path d="M873 1403L799 1164L1165 1356L873 1403Z" fill="#6BABD1"/>
<path d="M873 1403L799 1164L659 1476L873 1403Z" fill="#62A0CA"/>
<path d="M873 1403L799 1164L659 1476L873 1403Z" fill="#62A0CA"/>
<path d="M873 1403L848 1643.5L659 1476L873 1403Z" fill="#6CB3D1"/>
<path d="M873 1403L848 1643.5L659 1476L873 1403Z" fill="#6CB3D1"/>
<path d="M320 1643.5H848L659 1476L320 1643.5Z" fill="#66A5CE"/>
<path d="M320 1643.5H848L659 1476L320 1643.5Z" fill="#66A5CE"/>
<path d="M320 1643.5L555 1343L659 1476L320 1643.5Z" fill="#548CBB"/>
<path d="M320 1643.5L555 1343L659 1476L320 1643.5Z" fill="#548CBB"/>
<path d="M320 1643.5L555 1343L277 1432.5L320 1643.5Z" fill="#4380AD"/>
<path d="M320 1643.5L555 1343L277 1432.5L320 1643.5Z" fill="#4380AD"/>
<path d="M320 1643.5L3 1446L277 1432.5L320 1643.5Z" fill="#3675AA"/>
<path d="M320 1643.5L3 1446L277 1432.5L320 1643.5Z" fill="#3675AA"/>
<path d="M233 1149.5L3 1446L277 1432.5L233 1149.5Z" fill="#2B66A0"/>
<path d="M233 1149.5L3 1446L277 1432.5L233 1149.5Z" fill="#2B66A0"/>
<path d="M233 1149.5L556.5 1342L277 1432.5L233 1149.5Z" fill="#3674A6"/>
<path d="M233 1149.5L556.5 1342L277 1432.5L233 1149.5Z" fill="#3674A6"/>
<path d="M799 1164L555 1343L659 1476L799 1164Z" fill="#4A8EBD"/>
<path d="M799 1164L555 1343L659 1476L799 1164Z" fill="#4A8EBD"/>
<path d="M873 1403L848 1643.5L1165 1356L873 1403Z" fill="#78C5D9"/>
<path d="M873 1403L848 1643.5L1165 1356L873 1403Z" fill="#78C5D9"/>
<path d="M973 1064.5L1163 940.5L1165 1356L973 1064.5Z" fill="#6FB0D0"/>
<path d="M973 1064.5L1163 940.5L1165 1356L973 1064.5Z" fill="#6FB0D0"/>
<path d="M574 814.5L799 1164L284.5 871L574 814.5Z" fill="#2C6099"/>
<path d="M281.5 237.5L357 469L503 164.5L281.5 237.5Z" fill="#122D5A"/>
<path d="M609.5 288L357 469L503 164.5L609.5 288Z" fill="#1E3F6C"/>
<path d="M929 484.5L609.5 288L881 216.5L929 484.5Z" fill="#274F80"/>
<path d="M929.76 484.5L1159.5 198.5L881 216.5L929.76 484.5Z" fill="#336393"/>
<path d="M854.5 0L1159.5 198.5L881 216.5L854.5 0Z" fill="#285480"/>
</svg>
